<svg width="3186" height="2954" xmlns="http://www.w3.org/2000/svg" xmlns:xlink="http://www.w3.org/1999/xlink" xml:space="preserve" overflow="hidden"><defs><clipPath id="clip0"><rect x="319" y="287" width="3186" height="2954"/></clipPath></defs><g clip-path="url(#clip0)" transform="translate(-319 -287)"><path d="M339.5 955.339C339.5 754.397 502.397 591.5 703.34 591.5L2158.66 591.5C2359.6 591.5 2522.5 754.397 2522.5 955.339L2522.5 2856.66C2522.5 3057.6 2359.6 3220.5 2158.66 3220.5L703.34 3220.5C502.397 3220.5 339.5 3057.6 339.5 2856.66Z" stroke="#000000" stroke-width="41.25" stroke-miterlimit="8" fill="none" fill-rule="evenodd"/><path d="M896 538.668C896 505.714 922.714 479 955.668 479L1906.33 479C1939.29 479 1966 505.714 1966 538.668L1966 777.332C1966 810.286 1939.29 837 1906.33 837L955.668 837C922.714 837 896 810.286 896 777.332Z" fill-rule="evenodd"/><path d="M1132 518.5C1132 390.646 1265.64 287 1430.5 287 1595.36 287 1729 390.646 1729 518.5 1729 646.354 1595.36 750 1430.5 750 1265.64 750 1132 646.354 1132 518.5Z" fill-rule="evenodd"/><path d="M600.5 1137.5 2000.34 1137.5" stroke="#000000" stroke-width="68.75" stroke-miterlimit="8" fill="none" fill-rule="evenodd"/><path d="M600.5 1603.5 1344.04 1603.5" stroke="#000000" stroke-width="68.75" stroke-miterlimit="8" fill="none" fill-rule="evenodd"/><path d="M600.5 2076.5 1430.8 2076.5" stroke="#000000" stroke-width="68.75" stroke-miterlimit="8" fill="none" fill-rule="evenodd"/><path d="M600.5 2578.5 1912.15 2578.5" stroke="#000000" stroke-width="68.75" stroke-miterlimit="8" fill="none" fill-rule="evenodd"/><path d="M2382.5 1581.75C2776.04 597.667 4310.85 1581.75 2382.5 2847 454.146 1581.75 1988.96 597.667 2382.5 1581.75Z" stroke="#000000" stroke-width="45.8333" stroke-miterlimit="8" fill="#FFFFFF" fill-rule="evenodd"/><path d="M1729 1991 2000.48 1991.89" stroke="#000000" stroke-width="45.8333" stroke-miterlimit="8" fill="none" fill-rule="evenodd"/><path d="M0 0 207.833 261.679" stroke="#000000" stroke-width="45.8333" stroke-miterlimit="8" fill="none" fill-rule="evenodd" transform="matrix(1 0 0 -1 1982 1998.68)"/><path d="M2461.44 2388.92 2190 1716" stroke="#000000" stroke-width="45.8333" stroke-miterlimit="8" fill="none" fill-rule="evenodd"/><path d="M0 0 226.634 379.233" stroke="#000000" stroke-width="45.8333" stroke-miterlimit="8" fill="none" fill-rule="evenodd" transform="matrix(1 0 0 -1 2456 2370.23)"/><path d="M3047.5 1938.67C3047.5 1920.35 3062.35 1905.5 3080.67 1905.5L3341.33 1905.5C3359.65 1905.5 3374.5 1920.35 3374.5 1938.67L3374.5 2071.33C3374.5 2089.65 3359.65 2104.5 3341.33 2104.5L3080.67 2104.5C3062.35 2104.5 3047.5 2089.65 3047.5 2071.33Z" stroke="#FFFFFF" stroke-width="4.58333" stroke-miterlimit="8" fill="#FFFFFF" fill-rule="evenodd"/><path d="M2662 1991 3481.2 2002.92" stroke="#000000" stroke-width="45.8333" stroke-miterlimit="8" fill="none" fill-rule="evenodd"/></g></svg>